<svg width="1024" xmlns="http://www.w3.org/2000/svg" height="1024" id="screenshot-0ed7e553-1de1-809b-8007-d3ea48746b02" viewBox="0 0 1024 1024" xmlns:xlink="http://www.w3.org/1999/xlink" fill="none" version="1.1"><g id="shape-0ed7e553-1de1-809b-8007-d3ea48746b02"><defs><clipPath id="frame-clip-0ed7e553-1de1-809b-8007-d3ea48746b02-render-1" class="frame-clip frame-clip-def"><rect rx="0" ry="0" x="0" y="0" width="1024.0000000000005" height="1024" transform="matrix(1.000000, 0.000000, 0.000000, 1.000000, 0.000000, 0.000000)"/></clipPath></defs><g class="frame-container-wrapper"><g class="frame-container-blur"><g class="frame-container-shadows"><g clip-path="url(#frame-clip-0ed7e553-1de1-809b-8007-d3ea48746b02-render-1)" fill="none"><g class="fills" id="fills-0ed7e553-1de1-809b-8007-d3ea48746b02"><rect width="1024.0000000000005" height="1024" class="frame-background" x="0" transform="matrix(1.000000, 0.000000, 0.000000, 1.000000, 0.000000, 0.000000)" style="fill: rgb(255, 255, 255); fill-opacity: 1;" ry="0" rx="0" y="0"/></g><g class="frame-children"><g id="shape-0ed7e553-1de1-809b-8007-d3ea0fc3f975"><g class="fills" id="fills-0ed7e553-1de1-809b-8007-d3ea0fc3f975"><rect rx="0" ry="0" x="4.547473508864641e-13" y="0" transform="matrix(1.000000, 0.000000, 0.000000, 1.000000, 0.000000, 0.000000)" width="1024" height="1024" style="fill: rgb(254, 250, 247); fill-opacity: 1;"/></g></g><g id="shape-9eb2e6c5-79b4-801c-8007-d50efe04016b"><g class="fills" id="fills-9eb2e6c5-79b4-801c-8007-d50efe04016b"><rect rx="0" ry="0" x="4.547473508864641e-13" y="0" transform="matrix(1.000000, 0.000000, 0.000000, 1.000000, 0.000000, 0.000000)" width="1024" height="1024" style="fill: rgb(254, 250, 247); fill-opacity: 1;"/></g></g><g id="shape-87305580-9d84-80a2-8007-d50f156fea72"><g class="fills" id="fills-87305580-9d84-80a2-8007-d50f156fea72"><rect rx="0" ry="0" x="4.547473508864641e-13" y="0" transform="matrix(1.000000, 0.000000, 0.000000, 1.000000, 0.000000, 0.000000)" width="1024" height="1024" style="fill: rgb(254, 250, 247); fill-opacity: 1;"/></g></g><g id="shape-88fe5764-5f7d-8038-8007-e38d943897ba" rx="0" ry="0" style="fill: rgb(0, 0, 0);"><g id="shape-88fe5764-5f7d-8038-8007-e38d943897bb"><g class="fills" id="fills-88fe5764-5f7d-8038-8007-e38d943897bb"><path d="M672.320068359375,419.4560546875C648.511962890625,401.5360107421875,622.528076171875,384.384033203125,594.880126953125,368.384033203125C567.10400390625,352.384033203125,539.328125,338.56005859375,511.93603515625,326.783935546875C466.49609375,307.3280029296875,422.336181640625,294.0159912109375,381.88818359375,286.7199401855469C294.080078125,271.1039733886719,224.064208984375,284.9279479980469,197.696044921875,330.4959716796875L197.696044921875,330.4959716796875C260.416015625,222.07992553710938,377.6640625,149.11996459960938,511.93603515625,149.11996459960938C564.672119140625,149.11996459960938,611.648193359375,202.87997436523438,641.984130859375,286.7199401855469C655.93603515625,325.3759765625,666.43212890625,370.303955078125,672.320068359375,419.4560546875Z" stroke-linejoin="round" stroke-miterlimit="10" style="fill: rgb(29, 95, 92);"/></g><g stroke-linejoin="round" stroke-miterlimit="10" id="strokes-30c24162-7562-80b8-8007-e4abd2df3b79-88fe5764-5f7d-8038-8007-e38d943897bb" class="strokes"><g class="inner-stroke-shape"><defs><clipPath id="inner-stroke-render-6-88fe5764-5f7d-8038-8007-e38d943897bb-0"><use href="#stroke-shape-render-6-88fe5764-5f7d-8038-8007-e38d943897bb-0"/></clipPath><path d="M672.320068359375,419.4560546875C648.511962890625,401.5360107421875,622.528076171875,384.384033203125,594.880126953125,368.384033203125C567.10400390625,352.384033203125,539.328125,338.56005859375,511.93603515625,326.783935546875C466.49609375,307.3280029296875,422.336181640625,294.0159912109375,381.88818359375,286.7199401855469C294.080078125,271.1039733886719,224.064208984375,284.9279479980469,197.696044921875,330.4959716796875L197.696044921875,330.4959716796875C260.416015625,222.07992553710938,377.6640625,149.11996459960938,511.93603515625,149.11996459960938C564.672119140625,149.11996459960938,611.648193359375,202.87997436523438,641.984130859375,286.7199401855469C655.93603515625,325.3759765625,666.43212890625,370.303955078125,672.320068359375,419.4560546875Z" id="stroke-shape-render-6-88fe5764-5f7d-8038-8007-e38d943897bb-0" style="fill: none; stroke-width: 14; stroke: rgb(254, 250, 247); stroke-opacity: 1;"/></defs><use href="#stroke-shape-render-6-88fe5764-5f7d-8038-8007-e38d943897bb-0" clip-path="url('#inner-stroke-render-6-88fe5764-5f7d-8038-8007-e38d943897bb-0')"/></g></g></g><g id="shape-88fe5764-5f7d-8038-8007-e38d943897bc"><g class="fills" id="fills-88fe5764-5f7d-8038-8007-e38d943897bc"><path d="M772.031982421875,512C745.5361328125,543.3599853515625,711.8720703125,574.97607421875,672.320068359375,604.6719970703125C675.904052734375,575.10400390625,677.823974609375,544.1279296875,677.823974609375,512C677.823974609375,479.8720703125,675.904052734375,448.89599609375,672.320068359375,419.3280029296875C666.43212890625,370.303955078125,655.93603515625,325.248046875,641.984130859375,286.7199401855469C611.648193359375,202.87997436523438,564.672119140625,149.11996459960938,511.93603515625,149.11996459960938C646.2080078125,149.11996459960938,763.4560546875,222.07992553710938,826.176025390625,330.4959716796875L826.176025390625,330.4959716796875C852.544189453125,376.1920166015625,829.3759765625,443.7760009765625,772.031982421875,512Z" stroke-linejoin="round" stroke-miterlimit="10" style="fill: rgb(29, 95, 92);"/></g><g stroke-linejoin="round" stroke-miterlimit="10" id="strokes-30c24162-7562-80b8-8007-e4abd2e01ab6-88fe5764-5f7d-8038-8007-e38d943897bc" class="strokes"><g class="inner-stroke-shape"><defs><clipPath id="inner-stroke-render-7-88fe5764-5f7d-8038-8007-e38d943897bc-0"><use href="#stroke-shape-render-7-88fe5764-5f7d-8038-8007-e38d943897bc-0"/></clipPath><path d="M772.031982421875,512C745.5361328125,543.3599853515625,711.8720703125,574.97607421875,672.320068359375,604.6719970703125C675.904052734375,575.10400390625,677.823974609375,544.1279296875,677.823974609375,512C677.823974609375,479.8720703125,675.904052734375,448.89599609375,672.320068359375,419.3280029296875C666.43212890625,370.303955078125,655.93603515625,325.248046875,641.984130859375,286.7199401855469C611.648193359375,202.87997436523438,564.672119140625,149.11996459960938,511.93603515625,149.11996459960938C646.2080078125,149.11996459960938,763.4560546875,222.07992553710938,826.176025390625,330.4959716796875L826.176025390625,330.4959716796875C852.544189453125,376.1920166015625,829.3759765625,443.7760009765625,772.031982421875,512Z" id="stroke-shape-render-7-88fe5764-5f7d-8038-8007-e38d943897bc-0" style="fill: none; stroke-width: 14; stroke: rgb(254, 250, 247); stroke-opacity: 1;"/></defs><use href="#stroke-shape-render-7-88fe5764-5f7d-8038-8007-e38d943897bc-0" clip-path="url('#inner-stroke-render-7-88fe5764-5f7d-8038-8007-e38d943897bc-0')"/></g></g></g><g id="shape-88fe5764-5f7d-8038-8007-e38d943897bd"><g class="fills" id="fills-88fe5764-5f7d-8038-8007-e38d943897bd"><path d="M874.816162109375,512C874.816162109375,578.0479736328125,857.152099609375,640,826.30419921875,693.5040283203125L826.30419921875,693.5040283203125C799.93603515625,739.199951171875,729.920166015625,752.89599609375,642.112060546875,737.280029296875C601.6640625,730.112060546875,557.504150390625,716.6719970703125,512.064208984375,697.216064453125C539.4560546875,685.5679931640625,567.232177734375,671.615966796875,595.008056640625,655.615966796875C622.783935546875,639.615966796875,648.64013671875,622.4639892578125,672.447998046875,604.5439453125C712,574.847900390625,745.6640625,543.3599853515625,772.159912109375,511.8720703125C829.504150390625,443.64794921875,852.672119140625,376.06396484375,826.30419921875,330.4959716796875L826.30419921875,330.4959716796875C857.152099609375,384,874.816162109375,445.9520263671875,874.816162109375,512Z" stroke-linejoin="round" stroke-miterlimit="10" style="fill: rgb(29, 95, 92);"/></g><g stroke-linejoin="round" stroke-miterlimit="10" id="strokes-30c24162-7562-80b8-8007-e4abd2e0b07f-88fe5764-5f7d-8038-8007-e38d943897bd" class="strokes"><g class="inner-stroke-shape"><defs><clipPath id="inner-stroke-render-8-88fe5764-5f7d-8038-8007-e38d943897bd-0"><use href="#stroke-shape-render-8-88fe5764-5f7d-8038-8007-e38d943897bd-0"/></clipPath><path d="M874.816162109375,512C874.816162109375,578.0479736328125,857.152099609375,640,826.30419921875,693.5040283203125L826.30419921875,693.5040283203125C799.93603515625,739.199951171875,729.920166015625,752.89599609375,642.112060546875,737.280029296875C601.6640625,730.112060546875,557.504150390625,716.6719970703125,512.064208984375,697.216064453125C539.4560546875,685.5679931640625,567.232177734375,671.615966796875,595.008056640625,655.615966796875C622.783935546875,639.615966796875,648.64013671875,622.4639892578125,672.447998046875,604.5439453125C712,574.847900390625,745.6640625,543.3599853515625,772.159912109375,511.8720703125C829.504150390625,443.64794921875,852.672119140625,376.06396484375,826.30419921875,330.4959716796875L826.30419921875,330.4959716796875C857.152099609375,384,874.816162109375,445.9520263671875,874.816162109375,512Z" id="stroke-shape-render-8-88fe5764-5f7d-8038-8007-e38d943897bd-0" style="fill: none; stroke-width: 14; stroke: rgb(254, 250, 247); stroke-opacity: 1;"/></defs><use href="#stroke-shape-render-8-88fe5764-5f7d-8038-8007-e38d943897bd-0" clip-path="url('#inner-stroke-render-8-88fe5764-5f7d-8038-8007-e38d943897bd-0')"/></g></g></g><g id="shape-88fe5764-5f7d-8038-8007-e38d943897be"><g class="fills" id="fills-88fe5764-5f7d-8038-8007-e38d943897be"><path d="M826.176025390625,693.5040283203125C763.4560546875,801.919921875,646.2080078125,874.8800048828125,511.93603515625,874.8800048828125C459.2001953125,874.8800048828125,412.22412109375,821.1199951171875,381.88818359375,737.280029296875C367.93603515625,698.6240234375,357.440185546875,653.696044921875,351.552001953125,604.6719970703125C375.360107421875,622.592041015625,401.343994140625,639.7440185546875,428.9921875,655.7440185546875C456.76806640625,671.7440185546875,484.544189453125,685.696044921875,511.93603515625,697.343994140625C557.376220703125,716.800048828125,601.5361328125,730.239990234375,641.984130859375,737.407958984375C729.7919921875,752.89599609375,799.80810546875,739.072021484375,826.176025390625,693.5040283203125L826.176025390625,693.5040283203125Z" stroke-linejoin="round" stroke-miterlimit="10" style="fill: rgb(29, 95, 92);"/></g><g stroke-linejoin="round" stroke-miterlimit="10" id="strokes-30c24162-7562-80b8-8007-e4abd2e129fb-88fe5764-5f7d-8038-8007-e38d943897be" class="strokes"><g class="inner-stroke-shape"><defs><clipPath id="inner-stroke-render-9-88fe5764-5f7d-8038-8007-e38d943897be-0"><use href="#stroke-shape-render-9-88fe5764-5f7d-8038-8007-e38d943897be-0"/></clipPath><path d="M826.176025390625,693.5040283203125C763.4560546875,801.919921875,646.2080078125,874.8800048828125,511.93603515625,874.8800048828125C459.2001953125,874.8800048828125,412.22412109375,821.1199951171875,381.88818359375,737.280029296875C367.93603515625,698.6240234375,357.440185546875,653.696044921875,351.552001953125,604.6719970703125C375.360107421875,622.592041015625,401.343994140625,639.7440185546875,428.9921875,655.7440185546875C456.76806640625,671.7440185546875,484.544189453125,685.696044921875,511.93603515625,697.343994140625C557.376220703125,716.800048828125,601.5361328125,730.239990234375,641.984130859375,737.407958984375C729.7919921875,752.89599609375,799.80810546875,739.072021484375,826.176025390625,693.5040283203125L826.176025390625,693.5040283203125Z" id="stroke-shape-render-9-88fe5764-5f7d-8038-8007-e38d943897be-0" style="fill: none; stroke-width: 14; stroke: rgb(254, 250, 247); stroke-opacity: 1;"/></defs><use href="#stroke-shape-render-9-88fe5764-5f7d-8038-8007-e38d943897be-0" clip-path="url('#inner-stroke-render-9-88fe5764-5f7d-8038-8007-e38d943897be-0')"/></g></g></g><g id="shape-88fe5764-5f7d-8038-8007-e38d943897bf"><g class="fills" id="fills-88fe5764-5f7d-8038-8007-e38d943897bf"><path d="M511.93603515625,874.8800048828125C377.6640625,874.8800048828125,260.416015625,801.919921875,197.696044921875,693.5040283203125L197.696044921875,693.5040283203125C171.328125,647.8079833984375,194.49609375,580.35205078125,251.840087890625,512.1279296875C278.336181640625,480.7679443359375,312,449.1519775390625,351.552001953125,419.4560546875C347.968017578125,449.0240478515625,346.048095703125,480,346.048095703125,512.1279296875C346.048095703125,544.2559814453125,347.968017578125,575.23193359375,351.552001953125,604.800048828125C357.440185546875,653.823974609375,367.93603515625,698.8800048828125,381.88818359375,737.407958984375C412.35205078125,821.1199951171875,459.2001953125,874.8800048828125,511.93603515625,874.8800048828125Z" stroke-linejoin="round" stroke-miterlimit="10" style="fill: rgb(29, 95, 92);"/></g><g stroke-linejoin="round" stroke-miterlimit="10" id="strokes-30c24162-7562-80b8-8007-e4abd2e181a2-88fe5764-5f7d-8038-8007-e38d943897bf" class="strokes"><g class="inner-stroke-shape"><defs><clipPath id="inner-stroke-render-10-88fe5764-5f7d-8038-8007-e38d943897bf-0"><use href="#stroke-shape-render-10-88fe5764-5f7d-8038-8007-e38d943897bf-0"/></clipPath><path d="M511.93603515625,874.8800048828125C377.6640625,874.8800048828125,260.416015625,801.919921875,197.696044921875,693.5040283203125L197.696044921875,693.5040283203125C171.328125,647.8079833984375,194.49609375,580.35205078125,251.840087890625,512.1279296875C278.336181640625,480.7679443359375,312,449.1519775390625,351.552001953125,419.4560546875C347.968017578125,449.0240478515625,346.048095703125,480,346.048095703125,512.1279296875C346.048095703125,544.2559814453125,347.968017578125,575.23193359375,351.552001953125,604.800048828125C357.440185546875,653.823974609375,367.93603515625,698.8800048828125,381.88818359375,737.407958984375C412.35205078125,821.1199951171875,459.2001953125,874.8800048828125,511.93603515625,874.8800048828125Z" id="stroke-shape-render-10-88fe5764-5f7d-8038-8007-e38d943897bf-0" style="fill: none; stroke-width: 14; stroke: rgb(254, 250, 247); stroke-opacity: 1;"/></defs><use href="#stroke-shape-render-10-88fe5764-5f7d-8038-8007-e38d943897bf-0" clip-path="url('#inner-stroke-render-10-88fe5764-5f7d-8038-8007-e38d943897bf-0')"/></g></g></g><g id="shape-88fe5764-5f7d-8038-8007-e38d943897c0"><g class="fills" id="fills-88fe5764-5f7d-8038-8007-e38d943897c0"><path d="M511.93603515625,326.783935546875C484.544189453125,338.4320068359375,456.76806640625,352.384033203125,428.9921875,368.384033203125C401.216064453125,384.384033203125,375.360107421875,401.5360107421875,351.552001953125,419.4560546875C312,449.1519775390625,278.336181640625,480.6400146484375,251.840087890625,512.1279296875C194.49609375,580.35205078125,171.328125,647.93603515625,197.696044921875,693.5040283203125L197.696044921875,693.5040283203125C166.84814453125,640.1279296875,149.18408203125,578.176025390625,149.18408203125,512C149.18408203125,445.823974609375,166.84814453125,384,197.696044921875,330.4959716796875L197.696044921875,330.4959716796875C224.064208984375,284.8000183105469,294.080078125,271.1039733886719,381.88818359375,286.7199401855469C422.336181640625,294.0159912109375,466.49609375,307.3280029296875,511.93603515625,326.783935546875Z" stroke-linejoin="round" stroke-miterlimit="10" style="fill: rgb(29, 95, 92);"/></g><g stroke-linejoin="round" stroke-miterlimit="10" id="strokes-30c24162-7562-80b8-8007-e4abd2e2343a-88fe5764-5f7d-8038-8007-e38d943897c0" class="strokes"><g class="inner-stroke-shape"><defs><clipPath id="inner-stroke-render-11-88fe5764-5f7d-8038-8007-e38d943897c0-0"><use href="#stroke-shape-render-11-88fe5764-5f7d-8038-8007-e38d943897c0-0"/></clipPath><path d="M511.93603515625,326.783935546875C484.544189453125,338.4320068359375,456.76806640625,352.384033203125,428.9921875,368.384033203125C401.216064453125,384.384033203125,375.360107421875,401.5360107421875,351.552001953125,419.4560546875C312,449.1519775390625,278.336181640625,480.6400146484375,251.840087890625,512.1279296875C194.49609375,580.35205078125,171.328125,647.93603515625,197.696044921875,693.5040283203125L197.696044921875,693.5040283203125C166.84814453125,640.1279296875,149.18408203125,578.176025390625,149.18408203125,512C149.18408203125,445.823974609375,166.84814453125,384,197.696044921875,330.4959716796875L197.696044921875,330.4959716796875C224.064208984375,284.8000183105469,294.080078125,271.1039733886719,381.88818359375,286.7199401855469C422.336181640625,294.0159912109375,466.49609375,307.3280029296875,511.93603515625,326.783935546875Z" id="stroke-shape-render-11-88fe5764-5f7d-8038-8007-e38d943897c0-0" style="fill: none; stroke-width: 14; stroke: rgb(254, 250, 247); stroke-opacity: 1;"/></defs><use href="#stroke-shape-render-11-88fe5764-5f7d-8038-8007-e38d943897c0-0" clip-path="url('#inner-stroke-render-11-88fe5764-5f7d-8038-8007-e38d943897c0-0')"/></g></g></g></g></g></g></g></g></g></g></svg>