<?xml version="1.0" encoding="UTF-8"?>
<svg id="Layer_1" data-name="Layer 1" xmlns="http://www.w3.org/2000/svg" viewBox="0 0 865.3 306.3">
  <defs>
    <style>
      .cls-1 {
        fill: #315e5c;
      }
    </style>
  </defs>
  <path class="cls-1" d="M123,207.2c-.7-.8-1.3-1.8-1.9-2.9-.8-1.7-1.3-5-1.7-9.7l-5.8-86.5c-.2-3.6-1.5-6.6-3.6-8.8-2.2-2.2-5-3.3-8.6-3-3.2.2-6.3.8-9.3,1.9-2.9,1-6.8,2.7-11.5,5l-28.2,13.3c-3.9,1.9-6.7,3.9-8.3,6.1-1.6,2.2-2.3,4.7-2.1,7.7.2,2.6.9,4.6,2.3,6.1,1.3,1.5,3.1,2.9,5.3,4.2l1.9.9c1.7.8,3.1,2,4.1,3.5,1.1,1.5,1.7,4.4,2,8.6l3.1,45.1c.3,4.8.2,8.1-.3,9.9-.5,1.8-1.3,3.3-2.5,4.4l-1.8,1.4c-2.1,1.7-3.7,3.5-4.7,5.6-1.1,2-1.5,4.5-1.3,7.2.2,3.8,1.7,6.7,4.2,8.7,2.5,2,5.8,2.9,9.7,2.6l56.8-3.8c-2.3-7.2-1.7-16.1,2.2-27.2ZM101.8,34.1c-6.2-6-13.2-8.6-20.9-7.7-7.8.9-15.3,5-22.5,12.4-7.2,7.4-11.1,15-11.7,22.8-.6,7.8,2.2,14.6,8.4,20.6,6.2,6.1,13.3,8.7,21,7.9,7.8-.8,15.3-4.9,22.5-12.3,7.2-7.4,11.1-15,11.7-22.9s-2.2-14.8-8.5-20.8Z"/>
  <path class="cls-1" d="M428.1,224.6c.1,2.6-.8,5.9-3,9.9-4.6,8.9-11.6,16.1-21.2,21.5-9.5,5.5-20.8,8.2-33.7,8.2s-16.8-1.9-21.3-5.5c-4.6-3.7-6.9-8.9-7.2-15.5-.2-6.6,1.2-14.3,4.2-23l14.1-39.9c2.5-6.3,3.4-11.1,2.9-14.3-.6-3.2-2.8-4.8-6.6-4.8s-5.1.8-7.8,2.5c-2.7,1.7-5.4,4-8.1,7-2.7,3-5.2,6.6-7.7,10.8s-4.7,8.9-6.7,14.1c-1.7,4.6-3.2,8.7-4.5,12.3-1.3,3.6-2.3,6.8-2.9,9.6-.7,2.7-1,5.1-1,7.3,0,3.2.6,6.1,1.7,8.8,1.1,2.7,1.6,5.7,1.6,9.2,0,6.5-4.1,11.7-12.3,15.7-8.2,3.9-19.8,5.9-34.6,5.9s-16.8-3.3-19.1-9.9c-.7-2.1-1.1-4.5-1.2-7.1,8.7-1.3,16.7-3.9,23.7-8,10.3-5.9,18.1-13.8,23.1-23.6,2.6-4.9,3.7-9,3.5-12.5-.3-5.8-3.6-8.4-5.6-9.4-1.7-.9-3.5-1.4-5.4-1.4s-1.6,0-2.4.3c-2.3.5-4.8,1.9-7.7,4.4-1.7,1.3-2.6,1.8-3.1,2.1h0c0-.7-.1-3.4,2.4-10.4l14.1-40.1c3.5-9.8,5-18.7,4.5-26.4,0-.2,0-.3,0-.4,4.2-.7,8.6-1,13.2-1,8,0,14.2,1.6,18.5,4.7,4.3,3.2,6.4,7.7,6.4,13.6s-.8,7.5-2.5,11.8c-.7,1.7-1.4,3.4-2.1,5.2,6.3-8.5,12.9-15.3,19.9-20.5,7.2-5.3,14.4-9.1,21.7-11.4,7.3-2.3,14.2-3.4,20.8-3.4s16.2,2,20.8,6.1c4.6,4.1,7.1,9.7,7.5,16.8.4,7.1-1,15.3-4.2,24.5l-14.1,40.1c-2.3,6.5-3.1,11-2.4,13.6.7,2.5,2,3.8,3.9,3.8s2.1-.3,3.2-.8c1-.5,2.4-1.4,4-2.7,2.3-1.9,4.2-3,5.7-3.4.4,0,.9-.1,1.3-.1,1,0,2,.3,3,.8,1.8,1,2.8,2.7,3,5.3Z"/>
  <path class="cls-1" d="M573.2,181.4c-.6-3.2-1.7-5.3-3.3-6.3-1.6-1-3.3-1.4-5-1.2-1.3.2-2.7.8-4,1.8-1.4,1-3.1,2.8-5.3,5.3-3.7,4.4-8.1,8-13.2,10.8-5.1,2.8-10.3,4.7-15.6,5.7-11.8,2.3-22,.4-30.6-5.7-4.1-2.9-7.5-6.9-10.3-12l59-11.4c8.1-1.6,13.9-4.9,17.6-10.1,3.6-5.1,4.7-11.6,3.2-19.3-1.8-9.1-5.9-17.1-12.5-23.9-6.5-6.8-15-11.6-25.3-14.5-10.3-2.9-22-3-35.2-.5-16.4,3.2-29.7,9-39.7,17.4s-16.9,18.6-20.5,30.7c-3.7,12-4.1,25-1.5,38.9,2.6,13.5,7.9,24.8,16,33.9,8.1,9.1,18.1,15.4,30.2,18.9,12.1,3.5,25.6,3.8,40.4.9,13.3-2.6,24.3-7,33.1-13.3,8.8-6.3,15.1-13.5,19-21.8,3.9-8.2,5.1-16.4,3.5-24.6ZM482.9,154.7c-.9-4.4-1-8.1-.5-10.9.5-2.8,1.5-5,2.9-6.5,1.5-1.5,3.1-2.5,5-2.9,2.4-.5,4.8.2,7.1,2,2.3,1.8,4,5.2,4.9,10.2.8,4.2-.8,6.7-4.9,7.5l-14.2,2.7c-.1-.7-.3-1.4-.4-2.1Z"/>
  <path class="cls-1" d="M825.7,152.7c-.3,8.5-2.2,15.8-5.7,21.9-3.5,6.1-7.9,10.7-13.3,13.9-5.4,3.2-11.1,4.8-17.2,4.8s-11.8-1.5-14.7-4.4c-2.9-2.9-4.4-6.2-4.4-9.7s.4-5.4,1.3-8c.9-2.5,1.3-5,1.3-7.5s-.5-3.4-1.5-4.5c-1-1-2.3-1.6-3.8-1.6-2.2,0-4.4,1.1-6.8,3.2-2.3,2.2-4.8,6-7.5,11.4-2.7,5.5-5.9,13.2-9.4,23.3-2.4,6.8-4.1,12.3-5,16.5-.9,4.2-1.4,8.1-1.4,11.6s.8,6.1,2.3,7.7c1.5,1.6,3.1,3.2,4.6,4.7,1.5,1.6,2.3,4.1,2.3,7.7s-1.9,7.4-5.8,10.5c-3.9,3.1-9.7,5.5-17.5,7.2-7.8,1.7-17.7,2.6-29.7,2.6s-13.3-1.5-16.9-4.5c-3.6-3-5.4-7.3-5.5-12.8,0-5.5,1.3-12,4.2-19.5l19-50.3c6.4-.3,12.6-2.1,18.2-5.5,6.1-3.6,11.2-8.9,15.1-15.7,3.9-6.7,6-14.9,6.3-24.2.1-3.9-.1-7.6-.8-11,5.8.4,10.3,1.9,13.4,4.7,3.6,3.2,5.4,7.7,5.4,13.6s-.7,7.5-2,11.8c-.2.8-.5,1.6-.8,2.5,4.4-7.5,9.2-13.6,14.2-18.2,5.7-5.2,11.4-8.9,17.2-11.1,5.8-2.2,11.2-3.3,16.2-3.3,9.4,0,16.6,2.9,21.7,8.8,5.1,5.9,7.4,13.6,7,23.2Z"/>
  <path class="cls-1" d="M729.2,131.6c-.3,8.5-2.2,15.8-5.7,21.9-3.5,6.1-7.9,10.7-13.3,13.9-4.4,2.6-9,4.2-13.9,4.7-.9,0-1.8.1-2.7.2-.2,0-.4,0-.7,0-.7,0-1.3,0-1.9,0-3.3-.1-6-.6-8.3-1.5-1.3-.5-2.4-1.1-3.4-1.9-.4-.3-.8-.6-1.1-.9-.6-.7-1.2-1.3-1.7-2-1.8-2.4-2.6-5-2.6-7.7s0-2.4.2-3.6c.2-1.5.6-3,1-4.4.6-1.8,1-3.5,1.2-5.3h0c0-.8.1-1.5.1-2.2s0-1.4-.2-2c-.2-1-.7-1.8-1.3-2.4-1-1.1-2.3-1.6-3.8-1.6-2.2,0-4.4,1.1-6.8,3.2-2.3,2.2-4.8,6-7.5,11.4s-5.9,13.2-9.4,23.3c-2.4,6.8-4,12.3-4.9,16.5-.9,4.2-1.4,8.1-1.4,11.6s.8,6.1,2.3,7.7c1.5,1.6,3.1,3.2,4.6,4.7,1.5,1.6,2.3,4.1,2.3,7.7s-1.9,7.4-5.8,10.5c-3.9,3.1-9.7,5.5-17.5,7.2-7.8,1.7-17.7,2.6-29.7,2.6s-13.3-1.5-16.9-4.5c-3.6-3-5.4-7.3-5.5-12.8-.1-5.5,1.3-12,4.2-19.5l19.1-50.7c2.5-6.5,3.3-11,2.6-13.6-.8-2.5-2.1-3.8-4-3.8s-2.1.2-3.2.7c-1.1.5-2.4,1.4-4,2.7-2.3,1.8-4.2,2.9-5.7,3.2-.5.1-1,.2-1.5.2-1,0-1.9-.2-2.9-.7-1.8-1-2.8-2.7-2.9-5.3-.1-2.6.8-5.9,2.9-9.9,3.1-5.9,7.3-11.1,12.6-15.6,5.4-4.5,11.6-7.9,18.7-10.4,7.1-2.5,14.8-3.7,23.1-3.7s12.7,1.6,16.3,4.7c3.6,3.2,5.4,7.7,5.4,13.6s-.7,7.5-2,11.8c-.2.8-.5,1.6-.8,2.4,4.4-7.5,9.2-13.6,14.2-18.2,5.7-5.2,11.4-8.9,17.2-11.1,5.7-2.2,11.1-3.3,16.2-3.3,9.4,0,16.6,2.9,21.7,8.8,1.9,2.2,3.4,4.7,4.5,7.4.3.8.6,1.6.9,2.5.3.8.5,1.6.7,2.5.8,3.3,1.1,6.9.9,10.9Z"/>
  <path class="cls-1" d="M296,213.4c-4.6,8.9-11.7,16.1-21.2,21.5-6.2,3.6-13.2,6-20.9,7.2-.8.1-1.7.3-2.5.4-.8.1-1.7.2-2.6.3-2.5.2-5,.3-7.6.3-9.7,0-16.8-1.9-21.3-5.5-4.5-3.7-6.9-8.9-7.2-15.5-.2-6.6,1.2-14.3,4.2-23l14.1-39.9c2.5-6.3,3.4-11.1,2.9-14.3-.6-3.2-2.8-4.8-6.6-4.8s-5.1.8-7.8,2.5c-2.7,1.7-5.4,4-8.1,7-2.7,3-5.2,6.6-7.7,10.8-2.5,4.2-4.7,8.9-6.7,14.1-1.7,4.6-3.2,8.7-4.5,12.3-1.3,3.6-2.3,6.8-2.9,9.6-.7,2.7-1,5.1-1,7.3,0,3.2.6,6.1,1.7,8.8,1.1,2.7,1.7,5.7,1.7,9.2,0,6.5-4.1,11.7-12.4,15.7-8.2,3.9-19.8,5.9-34.6,5.9s-16.6-3.2-19-9.6c0-.1,0-.2-.1-.3-2-5.8-1.5-13.5,1.6-23,.4-1.2.8-2.5,1.3-3.8l19.1-50.7c2.5-6.5,3.4-11,2.6-13.6-.8-2.5-2.1-3.8-4-3.8s-2.1.2-3.2.7c-1,.5-2.4,1.4-4,2.7-2.3,1.8-4.2,2.9-5.7,3.2-.5.1-1,.2-1.5.2-1,0-1.9-.2-2.9-.7-1.8-1-2.8-2.7-2.9-5.3-.2-2.6.8-5.9,2.9-9.9,4.7-8.9,11.9-16.1,21.5-21.6,9.7-5.4,21.1-8.2,34.2-8.2s14.2,1.6,18.4,4.7c4.3,3.2,6.4,7.7,6.4,13.6s-.8,7.5-2.5,11.8c-.7,1.7-1.4,3.4-2.1,5.2,6.3-8.5,12.9-15.3,19.8-20.5,7.2-5.3,14.4-9.1,21.7-11.4,7.3-2.3,14.2-3.5,20.8-3.5s16.2,2,20.8,6.1c3.5,3.1,5.8,7.1,6.9,12.1.2.8.3,1.6.4,2.5.1.7.2,1.5.2,2.3,0,0,0,.1,0,.2.4,7.1-1,15.2-4.2,24.3l-14.1,40.1c-2.3,6.5-3.1,11-2.4,13.6.7,2.5,2,3.8,3.9,3.8s2.1-.3,3.2-.8c1.1-.5,2.4-1.4,4-2.7,2.3-1.9,4.2-3,5.7-3.4.5,0,.9-.1,1.4-.1,1,0,2,.3,3,.8,1.8,1,2.8,2.7,2.9,5.3.2,2.6-.8,5.9-2.9,9.9Z"/>
  <g>
    <path class="cls-1" d="M37.2,19.8c-10.1,2.2-15.5,17.7-13.7,23.3.6,1.2,2.5,1.2,2.7,0,2.2-12,7.3-15.8,12.6-19.3,2-1.3.7-4.4-1.6-3.9Z"/>
    <path class="cls-1" d="M30.2,8.7c-16.5-.4-24.8,24.2-22.6,32.9.5,1.7,3.3,1.4,3.6-.3,3.4-18.8,12-23.2,20.2-28.7,1.8-1.2.9-3.9-1.2-3.9Z"/>
  </g>
  <g>
    <path class="cls-1" d="M399.3,280.7c9.8,5.3,23.5-5.9,25.5-11.9.6-1.1-1.5-2.1-2.3-1.2-8.9,9.6-15.6,9.5-22.3,9.6-1.9,0-2.6,2.6-.9,3.5Z"/>
    <path class="cls-1" d="M433.2,278.6c-13.4,14.5-23.2,13-33.3,13.3-1.8,0-2.4,2.3-1,3.4,13.7,10.4,34.7-6.3,37.6-15,.9-1.5-2.1-2.9-3.2-1.7Z"/>
  </g>
  <g>
    <path class="cls-1" d="M827,104.4c-1.2-.4-1.7,2-.6,2.6,10.6,5.8,12.7,11.8,14.3,17.8.6,2.4,4.1,2,4.3-.4.8-10.1-12.1-19.5-18-20Z"/>
    <path class="cls-1" d="M833.2,90.4c-1.7-.5-2.4,2.7-.8,3.5,16.5,9,17.8,18.5,20.5,27.8.6,2.1,3.7,2.1,4.2,0,4-15.4-15.4-30.7-23.9-31.3Z"/>
  </g>
</svg>