<svg width="159.036" xmlns="http://www.w3.org/2000/svg" height="154.965" id="screenshot-ea3eae58-c4f4-8060-8007-f1a3776c4e86" viewBox="0 0 159.036 154.965" xmlns:xlink="http://www.w3.org/1999/xlink" fill="none" version="1.1"><g id="shape-ea3eae58-c4f4-8060-8007-f1a3776c4e86"><defs><clipPath id="frame-clip-ea3eae58-c4f4-8060-8007-f1a3776c4e86-render-1" class="frame-clip frame-clip-def"><rect rx="0" ry="0" x="0" y="0" width="159.03566877956655" height="154.9652519441829" transform="matrix(1.000000, 0.000000, 0.000000, 1.000000, 0.000000, 0.000000)"/></clipPath></defs><g class="frame-container-wrapper"><g class="frame-container-blur"><g class="frame-container-shadows"><g clip-path="url(#frame-clip-ea3eae58-c4f4-8060-8007-f1a3776c4e86-render-1)" fill="none"><g class="fills" id="fills-ea3eae58-c4f4-8060-8007-f1a3776c4e86"><rect rx="0" ry="0" x="0" y="0" width="159.03566877956655" height="154.9652519441829" transform="matrix(1.000000, 0.000000, 0.000000, 1.000000, 0.000000, 0.000000)" class="frame-background"/></g><g class="frame-children"><g id="shape-ea3eae58-c4f4-8060-8007-f1a3a0a90b30"><g class="fills" id="fills-ea3eae58-c4f4-8060-8007-f1a3a0a90b30"><path d="M157.59471130371094,93.56221771240234C156.68162536621094,100.1300277709961,153.69749450683594,106.0210189819336,150.68455505371094,111.80501556396484C145.59959411621094,121.7070541381836,138.46873474121094,130.4140167236328,129.76658630371094,137.34706115722656C119.48265838623047,145.51100158691406,107.72362518310547,150.40003967285156,94.87010955810547,152.65602111816406C86.90233612060547,154.0550079345703,78.87596893310547,155.07301330566406,70.73851776123047,154.6590118408203C51.12084197998047,153.66102600097656,34.18651580810547,146.7940216064453,20.42333221435547,132.3770294189453C14.583731651306152,126.15804290771484,9.620108604431152,119.1700668334961,5.6704020500183105,111.60604095458984C3.3896400928497314,107.3550033569336,2.5331947803497314,102.90901947021484,1.7648842334747314,98.35164642333984C0.34496238827705383,89.92073822021484,-0.5288169384002686,81.49752044677734,0.40453270077705383,72.88045501708984C1.5571205615997314,62.238121032714844,4.4921793937683105,52.263633728027344,9.797354698181152,42.992820739746094C16.22899627685547,31.53902244567871,25.04125213623047,21.60085105895996,35.63890838623047,13.849630355834961C46.19237518310547,6.193014144897461,58.13671112060547,2.270467758178711,71.04174041748047,0.7107753753662109C84.72191619873047,-1.052530288696289,98.62450408935547,0.39760398864746094,111.64867401123047,4.945882797241211C124.42650604248047,9.436300277709961,135.83055114746094,16.28810691833496,143.54270935058594,27.77956199645996C151.25462341308594,39.270957946777344,156.60569763183594,51.680564880371094,158.42161560058594,65.7258529663086C159.92967224121094,77.37935638427734,158.38670349121094,87.86483001708984,157.59471130371094,93.56221771240234ZM150.14158630371094,76.1892318725586C150.07664489746094,68.00862884521484,149.30662536621094,59.917503356933594,146.34251403808594,52.310142517089844C143.89964294433594,46.042137145996094,140.99656677246094,36.493064880371094,136.05467224121094,31.54475975036621C129.18772888183594,21.98402976989746,119.62963104248047,16.14662742614746,108.80467987060547,12.288412094116211C96.46288299560547,7.798849105834961,83.20311737060547,6.435323715209961,70.20677947998047,8.319356918334961C56.92723846435547,10.237020492553711,45.02977752685547,15.116231918334961,35.02489471435547,24.18532371520996C32.07250213623047,26.86720848083496,29.26000213623047,29.69893455505371,26.59789276123047,32.669822692871094C15.292960166931152,45.263023376464844,9.197501182556152,60.304161071777344,9.203848838806152,85.04634857177734C9.207755088806152,100.47200775146484,16.81005096435547,113.65804290771484,27.69847869873047,124.9280014038086C39.25609588623047,136.89100646972656,53.18895721435547,142.8880157470703,69.48461151123047,144.22804260253906C77.39842987060547,144.87599182128906,85.19945526123047,144.01405334472656,92.98192596435547,142.81105041503906C116.25267791748047,139.2150421142578,132.86253356933594,126.62105560302734,143.57249450683594,105.7070541381836C150.02757263183594,93.1017074584961,149.75169372558594,80.8224105834961,150.14158630371094,76.1892318725586Z" style="fill: rgb(0, 0, 0);"/></g></g></g></g></g></g></g></g></svg>